<?xml version="1.0" encoding="UTF-8"?>
<svg id="Capa_2" data-name="Capa 2" xmlns="http://www.w3.org/2000/svg" viewBox="0 0 744.76 892.09">
  <defs>
    <style>
      .cls-1 {
        fill: #fff;
      }
    </style>
  </defs>
  <g id="Capa_2_copia" data-name="Capa 2 copia">
    <g>
      <g>
        <path d="M660.47,533.37c-5.66-27.43-50.48-69.87-57.81-92.29-2.89-8.87-2.18-20.58-6.37-32.72-7.71-22.37-27.42-42.32-35.43-63.07-5.54-14.37-5.35-34.55-9.78-47.94-8.04-24.29-47.73-88.66-68.81-102.54-44.66-29.41-58.47,20.38-86.04,43.12-3.97,3.28-12.37,10.52-17.35,10.83-30.18,1.93-62.3-47.72-102.77-26.2-33.73,17.93-62.37,106.47-72.57,143.21-16.43,59.23-25.99,125.83,22.97,173.13-2.36-.51-36.73-14.79-34.34-4.74.65,2.74,24.29,9,29.16,11.5,20.83,10.69,37.79,30.88,58.48,42.5,11.8,7.65,67.86,77.62,72.95,79.37,3.66,1.26,8.99-.07,12.94.32-20.85-28.99-5.55-16.93,13.11-20.05,3.81-.64,29.69,2.88,33.48,3.61,114.08,21.98,156.26-53.24,204.28-144.53,4.98-9.46.31-32.23,16.2-8.35,1.76,2.64,35.06,70.44,27.7,34.84ZM225.57,518.75c-33.44-40.6-22.4-103.54-12.94-151.72,2.64-13.42,14.3-23.24,17.55-35.61,7.56-28.83,11.95-61.47,32.76-85.31,29.1-33.32,51.39-6.92,82.8,3.15,36.82,11.81,35.52,8.45,64.47-14.55,48.41-38.45,44.96-66.87,92.79-.43,28.89,40.11,25.49,49.69,40.2,92.7,19.41,56.71,67.15,79.1,39.49,147.44-59.2,146.24-260.69,161.43-357.12,44.33ZM566.42,575.23c-25.28,35.53-90.43,68.36-134.32,66.12-11.61-.6-20.38-3.61-31.15-4.82-17.41-1.97-55.79-4.52-69.56-13.31-7.53-4.8-9.57-14.55-12.94-17.59-4.11-3.71-12.31-6.66-17.76-11.71-.76-.71-18.74-10.15-8.28-13.86,1.37-.49,24.45,14.22,53.28,18,26.13,3.43,53.64,14.76,68.8,13.21,3.7-.38,13.15-1.02,14.52-1.25,56.4-9.46,131-53.42,151.96-112.3,2.22-6.23,18.14-38.16,22.72-35.68,1.24.67,13.62,17.61,13.48,20.1l-50.75,93.09Z"/>
        <path d="M733.91,175.36c-14.36-11.55-18.56-3.71-28.86-5.42-71.69-11.96-115.52,4.77-182.16,3.91-54.54-.71-35.09-16.8-61.87-44.56-31.97-33.16-32.67,17.2-37.54,20.97-20.79,16.09,7.39-48.45,10.65-52.68,5.39-7.01,16.41-8.72,21.62-14.34,11.69-12.62,16.09-48.55,1.75-60.65-3.92-3.31-23.92-5.88-28.31-4.7-5.17,1.4-11.33,9.44-15.45,8.75-5.12-.87-22.65-24.73-48.75-26.48-34.02-2.28-39.85,20.09-48.76,21.62-2.16.38-11.85-3.52-18.61-2.86-12.05,1.17-31.15,5.54-39.08,15.65-5.72,7.28-3.62,13.9-4.72,15.76-8.62,14.67-22.36,15.17-12.4,42.14.81,13.26,48.88,18.28,52.12,22.14.44.52,1.1,9.41,3.1,13.32,3.08,6.02,16.46,31.62,20.69,34.03,19.01,10.85,72.83-17.13,102.58-2.51,8.2,4.02,8.83,10.37,17.69,13.58,11.64,4.2,37.26-.06,39.01.79.5.24,1.49,6.89,5.52,9.41,29.86,18.66,43.24.84,69.05-1.56,41.5-3.86,118.32-4.83,158.85-1.23,33.67,2.99,26.81,31.35,1.27,41.1-19.56,7.47-111.34,14.12-135.4,14.82-24.06.71-40.94-17.49-28.51,23.96,25.78,86.04,67.12,197.26,130.24,265.27,5.07,5.46,15.68,9.24,12.11-2.65-2.35-7.85-26.72-33.28-33.26-43.43-4.16-6.47-33.26-58.3-33.75-61.79-.98-7.11-24.88-62.85-29.12-68.96-8.55-12.33-8.03-32.68-37.13-101.49,48.99-4.22,103.58.04,150.91-14.02,24.16-7.17,53.69-36.01,26.52-57.89ZM267.95,86.19c-.67-1.87-1.76-4.9-3.35-6.17-10.13-8.11-2.85,13.82-6.23,15.41-15.36,7.25-14.9-32.34-3.76-31.79,4.82.24,4.02,4.4,7.28,5.26,13.1,3.44,3-12.69,3.68-19.4,1.75-17.54,32.63-22.65,46.19-21.12,6.69.76,25.34,13.65,27.35,12.5,8.06-4.63-10.71-12.74-10.76-16.14-.12-8.41,22.53-15.25,29.91-14.72,29.68,2.15,53.97,34.64,68.03,36.84,18.79,2.94,1.94-14.21,3.52-16.9,2.11-3.57,19.07,1.96,22.26,4.63,17.64,14.81-5.73,50.73-24.1,55.27-10.78,2.67-24.87-2.08-30.2-.58-5.03,1.42-3.58,8.18-16.8,6.28-19.7-2.83-.25-14.68-11.36-14.99-3.51-.1-33.32,19.21-41.47,22.04-22.95,7.97-50.41,10.65-60.19-16.42ZM389.69,148.84c-1.4,1.06-33.45,5.6-34.86,4.56-4.47-3.29-.27-42.38-7.08-40.58-6.46,1.7,2.06,40.5.75,42.18-.85,1.11-16.76,2.29-19.28,1.32-2.63-1.03-37.46-53.84-12.33-41.58,6.26,3.05,7.76,33.33,19.1,35.58.76-6.86-3.59-12.08-5.71-17.99-.54-1.5-9.02-15.87-6.79-19.5,1.23-2,40.7-19.05,43.02-18.68,12.95,2.08-2.86,45.04,3.91,51.48,4.87,4.64,6.74-34.37,8.58-37.5.82-1.39,23.69-11.21,25.02-10.91,4.09.89-12.14,49.96-14.33,51.62ZM396.97,148.75l19.53-48.43c4.39,5.03-12.44,61.86-19.53,48.43ZM458.55,168.96c-56.02,8.7-14.7-64.04,3.24-22.25.07.16,4.93,9.57,5.3,10.26,1.74,3.23,8.38,9.36-8.54,11.99Z"/>
        <path d="M297.81,142.12c-6.52-7.56-16.8-3.35-23.77,3.8-8.63,8.84-8.68,23.24-13.88,34.11-23.54,49.18-187.25,42.09-240.61,89.31-13.38,11.84-30.05,40.38-3.6,48.73,28.28,8.94,98.36,7.9,127.82,2,10.49-2.1,50.64-22.86,53.24-20.99,10.32,7.43-9.43,49.36-12.24,58.68-6.67,22.12-12.39,57.92-16.55,82.13-4.92,28.59-16.63,51.62-19.99,81.62-.22,1.92-4.52,2.05-4.66,3.4-.29,2.69,18.67,28.1,20.93,29.9,13.37,10.63,38.26,10.34,51.96,23.83,7.21,7.1,10.95,20.69,16.7,27.96.83,1.05,15.62,13.24,18.23,16.89,7.83,10.95,18.12,42.89,32.12,44.48,8.78,1,11.47,1.72,9.07-5.93-11.1-35.33-68.47-91.87-98.06-114.62-5.66-4.35-38.95-22.83-39.88-24.99-.4-.91,6.35-4.76,8.12-8.25,20.43-40.08,18.45-99.09,30.46-143.1,7.49-27.45,19.98-51.25,23.85-81.05.28-2.12,5.77-15.7,1.18-18.22-7.38-4.05-8.34.24-13.71,4.27-42.81,32.05-130.66,51.39-180.29,31.94-2.03-.79-10.29-7.07-10.08-10.23.96-14.51,52.87-42.53,66.16-47.41,18.43-6.77,62.58-18.35,81.63-19.92,9.99-.83,19.88,4.18,31.85,2.05,14.82-2.66,43.4-24.8,56.98-33.71,3.16-2.07,5.28-1.59,5.62-1.72,4.4-1.69,2.69,3.03,11.49,3.38,2.04.09,37.63-9.74,39.49-10.73,21.1-11.17,2.23-33.91-9.58-47.61ZM280.65,184.38c-17.11.51-11.71-6.73-10.59-10.23.24-.74,3.3-10.88,3.34-11.05,9.98-44.37,63.92,19.57,7.25,21.28Z"/>
        <path d="M408.55,173.94c-10.14-5.79-65.52,2.51-64.67,16.15.63,10.18,10.64,12.77,13.55,15.37,3.23,2.87,5.61,9.81,11.33,11.42,17.79,5.01,60.48-31.12,39.79-42.94ZM370.46,210.47c-1.23-.33-18.43-16.2-18.64-17.46-2.02-11.85,50.34-15.87,52.77-14.4,11.94,7.22-20.49,35.5-34.13,31.86Z"/>
        <path class="cls-1" d="M396.97,148.75l19.53-48.43c4.39,5.03-12.44,61.86-19.53,48.43Z"/>
        <path d="M540.83,398.17c-4.21-6.06-28.75,4.73-39.85,3.86-16.82-1.32-44.49-12.44-61.07-14.06-38.3-3.73-102.06,20.72-141.02,31.62-4.24,1.18-25.88,10.31-34.2,9.27-3.46-.43-17.83-11.86-19.34-2.56-.56,3.43,19.58,12.12,22.5,14.99,7.5,7.37,11.32,30.87,20.51,43.6,39.29,54.44,114.54,129.48,179.77,57.91,31.46-34.52,27.5-69.13,45.61-106.82,3.52-7.33,2.11-10.48,9.08-18.31,5.2-5.84,23.13-12.12,18.01-19.5ZM518.94,413.78c-.09,1.12-3.79,1.69-4.3,2.79-4.52,9.84-8.57,8.97-12.67,16.22-12.98,22.94-12.09,54.74-23.8,78.87-.7,1.44-3.43,8.18-5.4,10.62-12.28,15.19-40.7,30.84-59.49,34.47-38.15,7.36-39.22-8.96-63.44-29.33-.6-.5-68.74-58.27-68.49-81.06.16-15.1,15.2-12.47,18.26-13.6,42.61-15.66,83.68-33.21,131.32-34.71,24.88-.78,44.12,13.83,71.42,14.84,3.2.11,17.18-7.02,16.59.89Z"/>
        <path d="M386.19,341.74c-.95-.65-12.07,5.59-12.96-.78-1.48-10.6,47.3-11.71,48.87-.6.94,6.65-25.06,22.33-30.59,22.47-3.41.09-37.23-11.07-24.78-15.35,1.13-.39,31.17,2.24,19.46-5.74Z"/>
        <path d="M515.25,291.4c2.58.11,14.13-1.12,9.21,9.08-2.19,4.53-22.63,10.55-27.45,13.48-11.29,6.89-17.4,32.68-24.99,25.56-3.37-3.16-1.18-19.22,9.39-29.64,12.26-12.09,33.5-18.49,33.84-18.48Z"/>
        <path d="M255.27,322.91c3.12-2.76,22.56-2.42,27.67-1.45,5.39,1.03,37.84,13.76,37.32,17.09-1.43,9.09-28.73-4.28-36.67-5.22-10.16-1.21-49.56,8.41-28.31-10.42Z"/>
      </g>
      <g>
        <path d="M120.82,885.68c-.73-4.21-1.42-9.18-2.07-14.91-.65-5.73-1.52-11.72-2.61-17.96-1.09-6.24-2.47-12.48-4.14-18.72-1.67-6.24-3.92-12.01-6.75-17.31-2.83-5.3-6.35-9.87-10.56-13.71-4.21-3.84-9.29-6.56-15.24-8.16-1.16-.29-2.58-.51-4.25-.65-1.67-.14-3.34-.22-5.01-.22s-3.09.08-4.25.22c-1.16.15-1.74.36-1.74.65l-7.4,67.92c-.15,1.31-.54,2.61-1.2,3.92-.65,1.31-1.45,2.43-2.39,3.37-.95.95-2.11,1.52-3.48,1.74-1.38.22-2.87-.25-4.46-1.42v-77.93l-33.74,21.33c-1.74,1.02-3.92,1.13-6.53.33-2.61-.8-4.28-2.21-5.01-4.25,2.03-2.61,5.48-5.51,10.34-8.71,4.86-3.19,9.83-6.46,14.91-9.8,5.08-3.34,9.61-6.64,13.61-9.9,3.99-3.27,6.13-6.35,6.42-9.25l7.62-79.24c.14-1.31.72-2.29,1.74-2.94,1.01-.65,2.14-1.09,3.37-1.31,1.23-.22,2.47-.25,3.7-.11,1.23.15,2.07.29,2.5.44v71.84l11.54-7.62,45.06-56.6h7.62c.87,3.34.4,7.18-1.42,11.54-1.82,4.35-4.14,8.56-6.97,12.63-2.83,4.06-5.66,7.73-8.49,10.99-2.83,3.27-4.68,5.41-5.55,6.42-1.02,1.02-2.61,2.54-4.79,4.57-2.18,2.03-4.61,4.32-7.29,6.86-2.69,2.54-5.55,5.15-8.6,7.84-3.05,2.69-5.95,5.26-8.71,7.73-2.76,2.47-5.22,4.68-7.4,6.64-2.18,1.96-3.85,3.37-5.01,4.25,6.67,1.74,13.17,3.81,19.48,6.2,6.31,2.39,12.44,5.26,18.4,8.6,3.63,2.18,6.86,5.63,9.69,10.34,2.83,4.72,5.33,10.12,7.51,16.22,2.18,6.1,3.99,12.55,5.44,19.38,1.45,6.82,2.58,13.39,3.37,19.7.8,6.31,1.23,12.12,1.31,17.42.07,5.3-.18,9.47-.76,12.52-.58,3.05-1.52,4.64-2.83,4.79-1.31.14-2.98-1.74-5.01-5.66Z"/>
        <path d="M153.26,878.06c-.29-.58-.65-1.56-1.09-2.94-.44-1.38-.84-2.9-1.2-4.57-.36-1.67-.69-3.23-.98-4.68-.29-1.45-.44-2.47-.44-3.05v-83.16c0-1.31.51-2.25,1.52-2.83,1.01-.58,2.18-.94,3.48-1.09,1.31-.14,2.58-.14,3.81,0,1.23.15,2.07.29,2.5.44-.15,1.89-.22,4.79-.22,8.71s-.04,8.35-.11,13.28c-.07,4.94-.07,10.16,0,15.67.07,5.52.11,10.81.11,15.89v13.28c0,3.92.07,6.82.22,8.71.29,8.13,1.42,13.79,3.37,16.98,1.96,3.19,4.35,4.68,7.18,4.46,2.83-.22,5.8-1.81,8.93-4.79,3.12-2.97,6.02-6.53,8.71-10.67,2.68-4.14,4.93-8.45,6.75-12.95,1.81-4.5,2.72-8.49,2.72-11.97v-56.6h15.24c-.29,3.34-.65,7.69-1.09,13.06-.44,5.37-.69,11.18-.76,17.42-.08,6.24.03,12.59.33,19.05.29,6.46.98,12.55,2.07,18.29,1.09,5.73,2.65,10.74,4.68,15.02,2.03,4.28,4.68,7.33,7.95,9.14,3.27,1.82,7.22,2.11,11.86.87,4.64-1.23,10.16-4.53,16.54-9.9,1.31,3.78.8,7.4-1.52,10.88-2.32,3.48-5.37,6.53-9.14,9.14-3.78,2.61-7.84,4.54-12.19,5.77-4.35,1.24-8.05,1.49-11.1.76-.44-.14-1.13-.72-2.07-1.74-.95-1.01-1.56-1.74-1.85-2.18-.58-1.01-1.6-2.94-3.05-5.77-1.45-2.83-2.98-5.84-4.57-9.03-1.6-3.19-3.08-6.24-4.46-9.14-1.38-2.9-2.36-4.93-2.94-6.1-.87,1.6-2.32,4.03-4.35,7.29-2.03,3.27-4.46,6.75-7.29,10.45s-5.88,7.18-9.14,10.45c-3.27,3.27-6.57,5.59-9.91,6.97-3.34,1.38-6.61,1.52-9.8.44-3.19-1.09-6.1-4.17-8.71-9.25Z"/>
        <path d="M254.92,885.68c.14-1.88.22-5.15.22-9.8v-29.61c0-4.64-.07-7.91-.22-9.8-.15-.87-.4-2.75-.76-5.66-.36-2.9-.8-6.31-1.31-10.23-.51-3.92-1.05-8.05-1.63-12.41-.58-4.35-1.16-8.49-1.74-12.41-.58-3.92-1.05-7.33-1.42-10.23-.36-2.9-.62-4.86-.76-5.88-.29-2.03-.4-4.14-.33-6.31.07-2.18.47-4.06,1.2-5.66.72-1.59,1.88-2.72,3.48-3.37,1.6-.65,3.92-.47,6.97.54.14,3.05.4,6.64.76,10.78.36,4.14.83,8.46,1.42,12.95.58,4.5,1.31,8.93,2.18,13.28.87,4.35,1.96,8.35,3.27,11.97,1.88-5.37,3.73-10.12,5.55-14.26,1.81-4.14,3.88-7.95,6.2-11.43,2.32-3.48,4.93-6.78,7.84-9.91,2.9-3.12,6.38-6.35,10.45-9.69,5.08-4.21,9.32-5.91,12.73-5.12,3.41.8,6.24,3.27,8.49,7.4,2.25,4.14,4.1,9.47,5.55,16,1.45,6.53,2.75,13.46,3.92,20.79,1.16,7.33,2.36,14.51,3.59,21.55,1.23,7.04,2.79,13.14,4.68,18.29,1.88,5.15,4.25,8.93,7.08,11.32s6.42,2.5,10.78.33c1.31,3.92,1.49,6.79.54,8.6-.95,1.82-2.54,2.83-4.79,3.05-2.25.22-4.9-.36-7.95-1.74-3.05-1.38-6.06-3.27-9.03-5.66-2.98-2.39-5.63-5.26-7.95-8.6-2.32-3.34-3.92-6.89-4.79-10.67-.58-2.61-1.09-6.89-1.52-12.84-.44-5.95-1.09-12.33-1.96-19.16-.87-6.82-2.21-13.53-4.03-20.14-1.82-6.6-4.39-11.86-7.73-15.78l-15.24,14.8c-.44.58-1.49,3.19-3.16,7.84-1.67,4.65-3.52,9.98-5.55,16-2.03,6.02-3.99,12.12-5.88,18.29-1.89,6.17-3.27,11.14-4.14,14.91-.29,1.31-.65,3.74-1.09,7.29-.44,3.56-.87,7.37-1.31,11.43-.44,4.06-.76,7.87-.98,11.43-.22,3.56-.33,6.06-.33,7.51-1.31,2.61-3.19,3.92-5.66,3.92s-4.35-1.31-5.66-3.92Z"/>
        <path d="M359.41,885.68c-2.9-6.09-4.46-12.26-4.68-18.5-.22-6.24.11-12.63.98-19.16.14-2.03.51-5.08,1.09-9.14.58-4.06,1.23-8.56,1.96-13.5.72-4.93,1.52-10.16,2.4-15.67.87-5.51,1.67-10.74,2.39-15.67.72-4.93,1.42-9.32,2.07-13.17.65-3.84,1.12-6.71,1.42-8.6,1.16-6.1,2.43-11.28,3.81-15.57,1.38-4.28,3.27-7.58,5.66-9.91,2.39-2.32,5.51-3.55,9.36-3.7,3.84-.14,8.82.8,14.91,2.83.72.15,1.52.69,2.4,1.63.87.95,1.38,1.63,1.52,2.07.29,1.89.83,4.79,1.63,8.71.8,3.92,1.7,8.38,2.72,13.39,1.01,5.01,2.07,10.23,3.16,15.67s2.14,10.67,3.16,15.67c1.01,5.01,1.92,9.47,2.72,13.39.8,3.92,1.42,6.82,1.85,8.71,2.18,10.31,4.86,17.45,8.05,21.44,3.19,3.99,6.6,6.06,10.23,6.2,3.63.15,7.36-1.05,11.21-3.59,3.84-2.54,7.65-5.22,11.43-8.05,3.77-2.83,7.33-5.26,10.67-7.29,3.34-2.03,6.24-2.39,8.71-1.09,0,2.76-.65,5.44-1.96,8.05s-2.87,5.04-4.68,7.29c-1.82,2.25-3.81,4.32-5.99,6.2-2.18,1.89-4.21,3.48-6.1,4.79-8.13,5.37-14.91,8.2-20.35,8.49-5.44.29-10.05-.94-13.82-3.7-3.78-2.76-6.82-6.53-9.14-11.32-2.32-4.79-4.39-9.65-6.2-14.58-1.82-4.93-3.56-9.32-5.22-13.17-1.67-3.84-3.67-6.28-5.99-7.29-.44,1.89-1.34,5.15-2.72,9.8-1.38,4.65-2.87,9.58-4.46,14.8-1.6,5.22-3.12,10.16-4.57,14.8-1.45,4.65-2.47,7.91-3.05,9.8-.29.73-.91,2.11-1.85,4.14-.95,2.03-2.14,4.25-3.59,6.64-1.45,2.39-3.09,4.72-4.9,6.97-1.82,2.25-3.67,3.99-5.55,5.22-1.89,1.23-3.78,1.63-5.66,1.2-1.89-.43-3.56-2.18-5.01-5.22ZM370.73,821.46c-.29,1.74-.47,4.94-.54,9.58-.08,4.65-.11,9.58-.11,14.8s.03,10.16.11,14.8c.07,4.65.25,7.91.54,9.8,5.08-7.69,9.65-16.65,13.71-26.88,4.06-10.23,7.15-20.82,9.25-31.78,2.1-10.96,2.94-21.84,2.5-32.65-.44-10.81-2.61-20.64-6.53-29.5-2.47,4.5-4.79,10.16-6.97,16.98-2.18,6.82-4.06,13.75-5.66,20.79-1.6,7.04-2.94,13.64-4.03,19.81-1.09,6.17-1.85,10.92-2.29,14.26Z"/>
        <path d="M480.01,874.15c.14-2.32.69-5.69,1.63-10.12.94-4.42,1.81-9.14,2.61-14.15.8-5.01,1.31-9.98,1.52-14.91.22-4.93-.26-9.11-1.42-12.52-1.16-3.41-3.23-5.69-6.2-6.86-2.98-1.16-7.29-.51-12.95,1.96-3.19-.87-5.01-2.1-5.44-3.7-.44-1.6,0-3.41,1.31-5.44,1.31-2.03,3.16-4.25,5.55-6.64s4.82-4.86,7.29-7.4c2.47-2.54,4.68-5.04,6.64-7.51,1.96-2.47,3.08-4.86,3.37-7.18-.15-1.16-.4-3.7-.76-7.62-.36-3.92-.84-8.45-1.42-13.61-.58-5.15-1.13-10.63-1.63-16.44-.51-5.8-1.05-11.32-1.63-16.54-.58-5.22-1.05-9.76-1.42-13.61-.36-3.84-.62-6.42-.76-7.73-.15-1.88-.11-3.66.11-5.33.22-1.67.76-3.08,1.63-4.25.87-1.16,2.07-1.92,3.59-2.29,1.52-.36,3.52-.11,5.99.76.72,5.52,1.45,11.75,2.18,18.72.72,6.97,1.52,14.15,2.39,21.55.87,7.4,1.85,14.8,2.94,22.21,1.09,7.4,2.36,14.3,3.81,20.68,1.45-1.16,3.19-3.16,5.22-5.99,2.03-2.83,4.21-5.95,6.53-9.36,2.32-3.41,4.75-6.82,7.29-10.23,2.54-3.41,4.97-6.17,7.29-8.27,2.32-2.1,4.5-3.34,6.53-3.7,2.03-.36,3.7.76,5.01,3.37.14.29.22.91.22,1.85s-.08,1.63-.22,2.07c-1.89,5.81-4.9,11.18-9.03,16.11-4.14,4.94-8.35,9.73-12.63,14.37-4.28,4.65-8.02,9.4-11.21,14.26-3.19,4.86-4.86,10.05-5.01,15.57,1.31,1.16,3.19,3.05,5.66,5.66l18.94,18.94c3.63,3.48,7.04,6.86,10.23,10.12,3.19,3.27,6.02,6.2,8.49,8.82l5.66,5.44c.87.87,2.25,2.29,4.14,4.25,1.88,1.96,3.55,4.1,5.01,6.42,1.45,2.32,2.25,4.57,2.4,6.75.14,2.18-1.16,3.99-3.92,5.44-.29.15-.91.22-1.85.22s-1.56-.07-1.85-.22c-7.4-9.29-15.56-18.68-24.49-28.19-8.93-9.5-18.4-17.74-28.41-24.71-.15,1.31-.36,3.34-.65,6.1-.29,2.76-.69,5.88-1.2,9.36-.51,3.48-1.02,7.15-1.52,10.99-.51,3.85-1.05,7.51-1.63,10.99-.58,3.48-1.09,6.61-1.52,9.36-.44,2.76-.8,4.79-1.09,6.09-.15.73-.54,1.85-1.2,3.38-.65,1.52-1.49,3.01-2.5,4.46-1.02,1.45-2.18,2.58-3.48,3.38s-2.69.83-4.14.11c0-.58-.04-1.56-.11-2.94-.07-1.38-.11-2.9-.11-4.57s.03-3.23.11-4.68c.07-1.45.11-2.47.11-3.05Z"/>
        <path d="M574.49,885.68c-2.9-6.09-4.46-12.26-4.68-18.5-.22-6.24.11-12.63.98-19.16.14-2.03.51-5.08,1.09-9.14.58-4.06,1.23-8.56,1.96-13.5.72-4.93,1.52-10.16,2.4-15.67.87-5.51,1.67-10.74,2.39-15.67.72-4.93,1.42-9.32,2.07-13.17.65-3.84,1.12-6.71,1.42-8.6,1.16-6.1,2.43-11.28,3.81-15.57,1.38-4.28,3.27-7.58,5.66-9.91,2.39-2.32,5.51-3.55,9.36-3.7,3.84-.14,8.82.8,14.91,2.83.72.15,1.52.69,2.39,1.63.87.95,1.38,1.63,1.52,2.07.29,1.89.83,4.79,1.63,8.71.8,3.92,1.71,8.38,2.72,13.39,1.01,5.01,2.07,10.23,3.16,15.67,1.09,5.44,2.14,10.67,3.16,15.67,1.01,5.01,1.92,9.47,2.72,13.39.8,3.92,1.42,6.82,1.85,8.71,2.18,10.31,4.86,17.45,8.05,21.44,3.19,3.99,6.6,6.06,10.23,6.2,3.62.15,7.36-1.05,11.21-3.59,3.84-2.54,7.65-5.22,11.43-8.05,3.77-2.83,7.33-5.26,10.67-7.29,3.34-2.03,6.24-2.39,8.71-1.09,0,2.76-.65,5.44-1.96,8.05-1.3,2.61-2.87,5.04-4.68,7.29-1.82,2.25-3.81,4.32-5.99,6.2-2.18,1.89-4.21,3.48-6.1,4.79-8.13,5.37-14.91,8.2-20.35,8.49-5.44.29-10.05-.94-13.82-3.7-3.78-2.76-6.82-6.53-9.14-11.32-2.32-4.79-4.39-9.65-6.21-14.58-1.82-4.93-3.56-9.32-5.22-13.17-1.67-3.84-3.67-6.28-5.99-7.29-.44,1.89-1.34,5.15-2.72,9.8-1.38,4.65-2.87,9.58-4.46,14.8-1.6,5.22-3.12,10.16-4.57,14.8-1.45,4.65-2.47,7.91-3.05,9.8-.29.73-.91,2.11-1.85,4.14-.95,2.03-2.14,4.25-3.59,6.64-1.45,2.39-3.09,4.72-4.9,6.97-1.82,2.25-3.67,3.99-5.55,5.22-1.89,1.23-3.78,1.63-5.66,1.2-1.89-.43-3.56-2.18-5.01-5.22ZM585.81,821.46c-.29,1.74-.47,4.94-.54,9.58-.08,4.65-.11,9.58-.11,14.8s.03,10.16.11,14.8c.07,4.65.25,7.91.54,9.8,5.08-7.69,9.65-16.65,13.71-26.88,4.06-10.23,7.15-20.82,9.25-31.78,2.1-10.96,2.94-21.84,2.5-32.65-.43-10.81-2.61-20.64-6.53-29.5-2.47,4.5-4.79,10.16-6.97,16.98-2.18,6.82-4.06,13.75-5.66,20.79-1.6,7.04-2.94,13.64-4.03,19.81-1.09,6.17-1.85,10.92-2.29,14.26Z"/>
        <path d="M697.49,878.06c-3.63-5.37-5.81-11.35-6.53-17.96-.73-6.6-.73-13.53,0-20.79.72-7.25,1.88-14.58,3.48-21.99,1.59-7.4,2.97-14.55,4.14-21.44,1.16-6.89,1.81-13.35,1.96-19.38.14-6.02-.87-11.21-3.05-15.56-1.16-2.32-2.72-3.45-4.68-3.37-1.96.07-4.06.36-6.31.87-2.25.51-4.5.69-6.75.54-2.25-.14-4.25-1.52-5.99-4.14.15-.58.69-1.34,1.63-2.29.94-.94,1.63-1.49,2.07-1.63,13.06-1.88,23.98-.54,32.76,4.03,8.78,4.57,15.78,11.03,21.01,19.37,5.22,8.35,8.82,17.89,10.78,28.63,1.96,10.74,2.65,21.41,2.07,32-.58,10.6-2.25,20.43-5.01,29.5-2.76,9.07-6.24,16.08-10.45,21.01-4.21,4.93-9,7.11-14.37,6.53-5.37-.58-10.96-5.22-16.76-13.93ZM708.81,870.44c.14.44.58,1.02,1.31,1.74.72.73,1.49,1.52,2.29,2.39.8.87,1.56,1.63,2.29,2.29.72.65,1.23,1.05,1.52,1.2,5.37-3.05,9.36-7.18,11.97-12.41s4.17-11.03,4.68-17.42c.51-6.38.22-13.1-.87-20.14-1.09-7.04-2.65-13.82-4.68-20.35-2.03-6.53-4.39-12.55-7.08-18.07-2.69-5.51-5.26-10.01-7.73-13.5-.15,1.89-.44,4.79-.87,8.71-.44,3.92-.87,8.35-1.31,13.28-.44,4.94-.95,10.16-1.52,15.67-.58,5.52-1.13,10.78-1.63,15.78-.51,5.01-.98,9.47-1.42,13.39-.43,3.92-.73,6.82-.87,8.71-.15,1.45-.11,3.08.11,4.9.22,1.82.54,3.59.98,5.33.44,1.74.91,3.38,1.42,4.9.51,1.52.98,2.72,1.42,3.59Z"/>
      </g>
    </g>
  </g>
</svg>