<?xml version="1.0" encoding="UTF-8"?>
<svg id="Capa_2" data-name="Capa 2" xmlns="http://www.w3.org/2000/svg" viewBox="0 0 742.84 668.58">
  <defs>
    <style>
      .cls-1 {
        fill: #fff;
      }
    </style>
  </defs>
  <g id="Capa_2_copia" data-name="Capa 2 copia">
    <g>
      <path d="M658.54,533.37c-5.66-27.43-50.48-69.87-57.81-92.29-2.89-8.87-2.18-20.58-6.37-32.72-7.71-22.37-27.42-42.32-35.43-63.07-5.54-14.37-5.35-34.55-9.78-47.94-8.04-24.29-47.73-88.66-68.81-102.54-44.66-29.41-58.47,20.38-86.04,43.12-3.97,3.28-12.37,10.52-17.35,10.83-30.18,1.93-62.3-47.72-102.77-26.2-33.73,17.93-62.37,106.47-72.57,143.21-16.43,59.23-25.99,125.83,22.97,173.13-2.36-.51-36.73-14.79-34.34-4.74.65,2.74,24.29,9,29.16,11.5,20.83,10.69,37.79,30.88,58.48,42.5,11.8,7.65,67.86,77.62,72.95,79.37,3.66,1.26,8.99-.07,12.94.32-20.85-28.99-5.55-16.93,13.11-20.05,3.81-.64,29.69,2.88,33.48,3.61,114.08,21.98,156.26-53.24,204.28-144.53,4.98-9.46.31-32.23,16.2-8.35,1.76,2.64,35.06,70.44,27.7,34.84ZM223.64,518.75c-33.44-40.6-22.4-103.54-12.94-151.72,2.64-13.42,14.3-23.24,17.55-35.61,7.56-28.83,11.95-61.47,32.76-85.31,29.1-33.32,51.39-6.92,82.8,3.15,36.82,11.81,35.52,8.45,64.47-14.55,48.41-38.45,44.96-66.87,92.79-.43,28.89,40.11,25.49,49.69,40.2,92.7,19.41,56.71,67.15,79.1,39.49,147.44-59.2,146.24-260.69,161.43-357.12,44.33ZM564.49,575.23c-25.28,35.53-90.43,68.36-134.32,66.12-11.61-.6-20.38-3.61-31.15-4.82-17.41-1.97-55.79-4.52-69.56-13.31-7.53-4.8-9.57-14.55-12.94-17.59-4.11-3.71-12.31-6.66-17.76-11.71-.76-.71-18.74-10.15-8.28-13.86,1.37-.49,24.45,14.22,53.28,18,26.13,3.43,53.64,14.76,68.8,13.21,3.7-.38,13.15-1.02,14.52-1.25,56.4-9.46,131-53.42,151.96-112.3,2.22-6.23,18.14-38.16,22.72-35.68,1.24.67,13.62,17.61,13.48,20.1l-50.75,93.09Z"/>
      <path d="M731.98,175.36c-14.36-11.55-18.56-3.71-28.86-5.42-71.69-11.96-115.52,4.77-182.16,3.91-54.54-.71-35.09-16.8-61.87-44.56-31.97-33.16-32.67,17.2-37.54,20.97-20.79,16.09,7.39-48.45,10.65-52.68,5.39-7.01,16.41-8.72,21.62-14.34,11.69-12.62,16.09-48.55,1.75-60.65-3.92-3.31-23.92-5.88-28.31-4.7-5.17,1.4-11.33,9.44-15.45,8.75-5.12-.87-22.65-24.73-48.75-26.48-34.02-2.28-39.85,20.09-48.76,21.62-2.16.38-11.85-3.52-18.61-2.86-12.05,1.17-31.15,5.54-39.08,15.65-5.72,7.28-3.62,13.9-4.72,15.76-8.62,14.67-22.36,15.17-12.4,42.14.81,13.26,48.88,18.28,52.12,22.14.44.52,1.1,9.41,3.1,13.32,3.08,6.02,16.46,31.62,20.69,34.03,19.01,10.85,72.83-17.13,102.58-2.51,8.2,4.02,8.83,10.37,17.69,13.58,11.64,4.2,37.26-.06,39.01.79.5.24,1.49,6.89,5.52,9.41,29.86,18.66,43.24.84,69.05-1.56,41.5-3.86,118.32-4.83,158.85-1.23,33.67,2.99,26.81,31.35,1.27,41.1-19.56,7.47-111.34,14.12-135.4,14.82-24.06.71-40.94-17.49-28.51,23.96,25.78,86.04,67.12,197.26,130.24,265.27,5.07,5.46,15.68,9.24,12.11-2.65-2.35-7.85-26.72-33.28-33.26-43.43-4.16-6.47-33.26-58.3-33.75-61.79-.98-7.11-24.88-62.85-29.12-68.96-8.55-12.33-8.03-32.68-37.13-101.49,48.99-4.22,103.58.04,150.91-14.02,24.16-7.17,53.69-36.01,26.52-57.89ZM266.02,86.19c-.67-1.87-1.76-4.9-3.35-6.17-10.13-8.11-2.85,13.82-6.23,15.41-15.36,7.25-14.9-32.34-3.76-31.79,4.82.24,4.02,4.4,7.28,5.26,13.1,3.44,3-12.69,3.68-19.4,1.75-17.54,32.63-22.65,46.19-21.12,6.69.76,25.34,13.65,27.35,12.5,8.06-4.63-10.71-12.74-10.76-16.14-.12-8.41,22.53-15.25,29.91-14.72,29.68,2.15,53.97,34.64,68.03,36.84,18.79,2.94,1.94-14.21,3.52-16.9,2.11-3.57,19.07,1.96,22.26,4.63,17.64,14.81-5.73,50.73-24.1,55.27-10.78,2.67-24.87-2.08-30.2-.58-5.03,1.42-3.58,8.18-16.8,6.28-19.7-2.83-.25-14.68-11.36-14.99-3.51-.1-33.32,19.21-41.47,22.04-22.95,7.97-50.41,10.65-60.19-16.42ZM387.76,148.84c-1.4,1.06-33.45,5.6-34.86,4.56-4.47-3.29-.27-42.38-7.08-40.58-6.46,1.7,2.06,40.5.75,42.18-.85,1.11-16.76,2.29-19.28,1.32-2.63-1.03-37.46-53.84-12.33-41.58,6.26,3.05,7.76,33.33,19.1,35.58.76-6.86-3.59-12.08-5.71-17.99-.54-1.5-9.02-15.87-6.79-19.5,1.23-2,40.7-19.05,43.02-18.68,12.95,2.08-2.86,45.04,3.91,51.48,4.87,4.64,6.74-34.37,8.58-37.5.82-1.39,23.69-11.21,25.02-10.91,4.09.89-12.14,49.96-14.33,51.62ZM395.04,148.75l19.53-48.43c4.39,5.03-12.44,61.86-19.53,48.43ZM456.62,168.96c-56.02,8.7-14.7-64.04,3.24-22.25.07.16,4.93,9.57,5.3,10.26,1.74,3.23,8.38,9.36-8.54,11.99Z"/>
      <path d="M295.88,142.12c-6.52-7.56-16.8-3.35-23.77,3.8-8.63,8.84-8.68,23.24-13.88,34.11-23.54,49.18-187.25,42.09-240.61,89.31-13.38,11.84-30.05,40.38-3.6,48.73,28.28,8.94,98.36,7.9,127.82,2,10.49-2.1,50.64-22.86,53.24-20.99,10.32,7.43-9.43,49.36-12.24,58.68-6.67,22.12-12.39,57.92-16.55,82.13-4.92,28.59-16.63,51.62-19.99,81.62-.22,1.92-4.52,2.05-4.66,3.4-.29,2.69,18.67,28.1,20.93,29.9,13.37,10.63,38.26,10.34,51.96,23.83,7.21,7.1,10.95,20.69,16.7,27.96.83,1.05,15.62,13.24,18.23,16.89,7.83,10.95,18.12,42.89,32.12,44.48,8.78,1,11.47,1.72,9.07-5.93-11.1-35.33-68.47-91.87-98.06-114.62-5.66-4.35-38.95-22.83-39.88-24.99-.4-.91,6.35-4.76,8.12-8.25,20.43-40.08,18.45-99.09,30.46-143.1,7.49-27.45,19.98-51.25,23.85-81.05.28-2.12,5.77-15.7,1.18-18.22-7.38-4.05-8.34.24-13.71,4.27-42.81,32.05-130.66,51.39-180.29,31.94-2.03-.79-10.29-7.07-10.08-10.23.96-14.51,52.87-42.53,66.16-47.41,18.43-6.77,62.58-18.35,81.63-19.92,9.99-.83,19.88,4.18,31.85,2.05,14.82-2.66,43.4-24.8,56.98-33.71,3.16-2.07,5.28-1.59,5.62-1.72,4.4-1.69,2.69,3.03,11.49,3.38,2.04.09,37.63-9.74,39.49-10.73,21.1-11.17,2.23-33.91-9.58-47.61ZM278.72,184.38c-17.11.51-11.71-6.73-10.59-10.23.24-.74,3.3-10.88,3.34-11.05,9.98-44.37,63.92,19.57,7.25,21.28Z"/>
      <path d="M406.62,173.94c-10.14-5.79-65.52,2.51-64.67,16.15.63,10.18,10.64,12.77,13.55,15.37,3.23,2.87,5.61,9.81,11.33,11.42,17.79,5.01,60.48-31.12,39.79-42.94ZM368.53,210.47c-1.23-.33-18.43-16.2-18.64-17.46-2.02-11.85,50.34-15.87,52.77-14.4,11.94,7.22-20.49,35.5-34.13,31.86Z"/>
      <path class="cls-1" d="M395.04,148.75l19.53-48.43c4.39,5.03-12.44,61.86-19.53,48.43Z"/>
      <path d="M538.9,398.17c-4.21-6.06-28.75,4.73-39.85,3.86-16.82-1.32-44.49-12.44-61.07-14.06-38.3-3.73-102.06,20.72-141.02,31.62-4.24,1.18-25.88,10.31-34.2,9.27-3.46-.43-17.83-11.86-19.34-2.56-.56,3.43,19.58,12.12,22.5,14.99,7.5,7.37,11.32,30.87,20.51,43.6,39.29,54.44,114.54,129.48,179.77,57.91,31.46-34.52,27.5-69.13,45.61-106.82,3.52-7.33,2.11-10.48,9.08-18.31,5.2-5.84,23.13-12.12,18.01-19.5ZM517.01,413.78c-.09,1.12-3.79,1.69-4.3,2.79-4.52,9.84-8.57,8.97-12.67,16.22-12.98,22.94-12.09,54.74-23.8,78.87-.7,1.44-3.43,8.18-5.4,10.62-12.28,15.19-40.7,30.84-59.49,34.47-38.15,7.36-39.22-8.96-63.44-29.33-.6-.5-68.74-58.27-68.49-81.06.16-15.1,15.2-12.47,18.26-13.6,42.61-15.66,83.68-33.21,131.32-34.71,24.88-.78,44.12,13.83,71.42,14.84,3.2.11,17.18-7.02,16.59.89Z"/>
      <path d="M384.26,341.74c-.95-.65-12.07,5.59-12.96-.78-1.48-10.6,47.3-11.71,48.87-.6.94,6.65-25.06,22.33-30.59,22.47-3.41.09-37.23-11.07-24.78-15.35,1.13-.39,31.17,2.24,19.46-5.74Z"/>
      <path d="M513.32,291.4c2.58.11,14.13-1.12,9.21,9.08-2.19,4.53-22.63,10.55-27.45,13.48-11.29,6.89-17.4,32.68-24.99,25.56-3.37-3.16-1.18-19.22,9.39-29.64,12.26-12.09,33.5-18.49,33.84-18.48Z"/>
      <path d="M253.34,322.91c3.12-2.76,22.56-2.42,27.67-1.45,5.39,1.03,37.84,13.76,37.32,17.09-1.43,9.09-28.73-4.28-36.67-5.22-10.16-1.21-49.56,8.41-28.31-10.42Z"/>
    </g>
  </g>
</svg>